<svg width="14" height="14" viewBox="0 0 14 14" fill="none" xmlns="http://www.w3.org/2000/svg">
<path fill-rule="evenodd" clip-rule="evenodd" d="M7.58333 1.75033C7.58333 1.42816 7.32216 1.16699 7 1.16699C6.67783 1.16699 6.41666 1.42816 6.41666 1.75033V5.83366C6.41666 5.85817 6.41818 5.88232 6.42111 5.90603C5.41247 6.16351 4.66666 7.07815 4.66666 8.16699C4.66666 9.45566 5.71133 10.5003 7 10.5003C8.28866 10.5003 9.33333 9.45566 9.33333 8.16699C9.33333 7.07815 8.58752 6.16351 7.57888 5.90603C7.58182 5.88232 7.58333 5.85817 7.58333 5.83366V4.66699H8.16666C8.48883 4.66699 8.75 4.40582 8.75 4.08366C8.75 3.76149 8.48883 3.50033 8.16666 3.50033H7.58333V2.91699H8.16666C8.48883 2.91699 8.75 2.65582 8.75 2.33366C8.75 2.01149 8.48883 1.75033 8.16666 1.75033H7.58333ZM5.83333 8.16699C5.83333 7.52266 6.35567 7.00033 7 7.00033C7.64433 7.00033 8.16666 7.52266 8.16666 8.16699C8.16666 8.81132 7.64433 9.33366 7 9.33366C6.35567 9.33366 5.83333 8.81132 5.83333 8.16699Z" fill="#434C5B"/>
<path fill-rule="evenodd" clip-rule="evenodd" d="M4.00204 3.49934L2.33333 4.4264V9.57327L7 12.1659L11.6667 9.57327V4.4264L9.99796 3.49934L10.5645 2.47949L12.8333 3.73993V10.2597L7 13.5005L1.16666 10.2597V3.73993L3.43546 2.47949L4.00204 3.49934Z" fill="#434C5B"/>
</svg>
